<svg version="1.0" xmlns="http://www.w3.org/2000/svg"
 width="512.000000pt" height="512.000000pt" viewBox="0 0 512.000000 512.000000"
 preserveAspectRatio="xMidYMid meet">

<g transform="translate(0.000000,512.000000) scale(0.100000,-0.100000)"
fill="#000000" stroke="none">
<path d="M632 2707 l-632 -632 147 -148 148 -147 297 297 298 298 297 -298
298 -297 297 297 298 298 297 -298 298 -297 297 297 298 298 298 -298 297
-297 628 628 627 627 -150 150 -150 150 -293 -293 c-160 -160 -297 -292 -303
-292 -6 0 -141 133 -300 296 l-288 295 -298 -298 -298 -298 -298 298 -297 297
-295 -295 -295 -295 -295 295 -295 295 -633 -633z"/>
</g>
</svg>
